<?xml version="1.0" encoding="UTF-8"?>
<svg viewBox="0 0 1040 420" xmlns="http://www.w3.org/2000/svg" font-family="-apple-system,'Segoe UI',system-ui,sans-serif">
  <defs>
    <marker id="a2" markerWidth="8" markerHeight="8" refX="6.5" refY="4" orient="auto"><path d="M0,0 L7,4 L0,8 Z" fill="#cdbfa3"/></marker>
    <marker id="a2g" markerWidth="8" markerHeight="8" refX="6.5" refY="4" orient="auto"><path d="M0,0 L7,4 L0,8 Z" fill="#cf9a52"/></marker>
    <filter id="s2" x="-20%" y="-30%" width="140%" height="170%"><feDropShadow dx="0" dy="3" stdDeviation="4" flood-color="#5b3a1e" flood-opacity="0.12"/></filter>
    <style>
      .t2{ fill:#2d1b0e; font-size:23px; font-weight:800; letter-spacing:.02em; }
      .nm2{ fill:#3a2817; font-size:15px; font-weight:700; }
      .nm2k{ fill:#c0532f; font-size:15px; font-weight:800; }
      .nm2g{ fill:#9a6a1e; font-size:15px; font-weight:800; }
      .pth{ font-family:ui-monospace,Menlo,monospace; fill:#a85433; font-size:13px; font-weight:600; }
      .pthn{ font-family:ui-monospace,Menlo,monospace; fill:#6b4a2a; font-size:13px; font-weight:600; }
      .d2{ fill:#7a6a55; font-size:12px; }
      .hd2{ fill:#2d1b0e; font-size:14px; font-weight:800; }
      .c2{ fill:#fffdf6; stroke:#ece0c4; stroke-width:1.2; rx:13; }
      .c2k{ fill:#fdeee7; stroke:#f0cdbd; }
      .c2g{ fill:#fbf2db; stroke:#ecdbac; }
      .lay{ fill:#fffdf6; stroke:#ece0c4; stroke-width:1.2; rx:15; }
      .layk{ fill:#fdeee7; stroke:#f0cdbd; }
      .ln2{ stroke:#cdbfa3; stroke-width:1.5; fill:none; marker-end:url(#a2); }
      .ln2g{ stroke:#cf9a52; stroke-width:1.5; fill:none; stroke-dasharray:5 5; marker-end:url(#a2g); }
      .al2{ fill:#9a8a72; font-size:11.5px; }
      .alg2{ fill:#a87a36; font-size:11.5px; }
    </style>
  </defs>
  <rect x="0" y="0" width="1040" height="420" fill="#fdf8ec" rx="18"/>
  <text class="t2" x="44" y="56">Ký ức dài hạn và trạng thái</text>
  <rect x="46" y="68" width="58" height="3" rx="1.5" fill="#e76f51"/>

  <rect class="c2 c2k" x="44" y="92" width="150" height="56" filter="url(#s2)"/>
  <text class="nm2k" x="64" y="125">Văn bản người viết</text>
  <rect class="c2" x="232" y="92" width="150" height="56" filter="url(#s2)"/>
  <text class="nm2" x="252" y="125">Trích xuất 9 loại sự kiện</text>
  <rect class="c2" x="420" y="92" width="150" height="56" filter="url(#s2)"/>
  <text class="nm2" x="440" y="125">Gia tăng có cấu trúc</text>
  <rect class="c2" x="608" y="92" width="150" height="56" filter="url(#s2)"/>
  <text class="nm2" x="628" y="125">Ghi bất biến</text>
  <rect class="c2 c2g" x="796" y="92" width="160" height="56" filter="url(#s2)"/>
  <text class="nm2g" x="816" y="125">Kiểm định cấu trúc ✓</text>

  <path class="ln2" d="M194,120 L230,120"/>
  <path class="ln2" d="M382,120 L418,120"/>
  <path class="ln2" d="M570,120 L606,120"/>
  <path class="ln2" d="M758,120 L794,120"/>

  <rect class="lay layk" x="44" y="216" width="296" height="150" filter="url(#s2)"/>
  <text class="hd2" x="66" y="248">Trạng thái có cấu trúc chính thống</text>
  <text class="pth" x="66" y="276">story/state/*.json</text>
  <text class="d2" x="66" y="304">Trạng thái hiện tại · Mầm truyện · Tóm tắt chương</text>
  <text class="d2" x="66" y="326">Kiểm định từng trường, dữ liệu hỏng bị từ chối ngay</text>
  <text class="d2" x="66" y="348">Nguồn chính thống duy nhất của sách này</text>

  <rect class="lay" x="372" y="216" width="296" height="150" filter="url(#s2)"/>
  <text class="hd2" x="394" y="248">Hình chiếu đọc được cho người</text>
  <text class="pthn" x="394" y="276">story/*.md</text>
  <text class="d2" x="394" y="304">Trạng thái hiện tại · Mầm truyện chờ thu hoạch</text>
  <text class="d2" x="394" y="326">Tóm tắt chương · Ma trận nhân vật</text>
  <text class="d2" x="394" y="348">Kết xuất từ trạng thái chính thống, dành cho người đọc</text>

  <rect class="lay" x="700" y="216" width="296" height="150" filter="url(#s2)"/>
  <text class="hd2" x="722" y="248">Kho ký ức trình tự</text>
  <text class="pthn" x="722" y="276">story/memory.db</text>
  <text class="d2" x="722" y="304">Cơ sở dữ liệu cục bộ, tự động bật từ phiên bản 22 trở lên</text>
  <text class="d2" x="722" y="326">Truy xuất sự kiện / mầm truyện / tóm tắt theo mức liên quan</text>
  <text class="d2" x="722" y="348">Tránh bơm toàn bộ làm tràn ngữ cảnh</text>

  <path class="ln2" d="M876,148 C876,184 192,184 192,214"/>
  <text class="al2" x="430" y="180">Kiểm định đạt · Ghi vào trạng thái chính thống</text>
  <path class="ln2" d="M340,290 L370,290"/><text class="al2" x="343" y="283">Kết xuất</text>
  <path class="ln2" d="M668,290 L698,290"/><text class="al2" x="668" y="283">Lập chỉ mục</text>
  <path class="ln2g" d="M848,366 C848,398 192,398 192,368"/>
  <text class="alg2" x="430" y="412">Trước khi viết chương tiếp theo · Truy xuất theo mức liên quan</text>
</svg>
